<svg xmlns="http://www.w3.org/2000/svg" viewBox="0 0 1200 320" preserveAspectRatio="xMidYMid slice">
<g fill="#ffffff" stroke="#ffffff" stroke-width="2.4" stroke-linejoin="round">
<g transform="rotate(0.4 47.9 35.8)">
<g fill="none"><path d="M 23.850536521053534 5.7658692659135085 H 71.92144983494236 V 43.32127029238915 Q 71.92144983494236 62.850078826156484 47.885993177997946 70.3611590314516 Q 23.850536521053534 62.850078826156484 23.850536521053534 43.32127029238915 Z"/></g>
<g fill="none" stroke-width="1.4"><path d="M 30.099755251859083 13.577392679420441 H 65.67223110413681 V 41.36838943901242 Q 65.67223110413681 55.81970775400025 47.885993177997946 61.37790710591864 Q 30.099755251859083 55.81970775400025 30.099755251859083 41.36838943901242 Z"/></g>
<g stroke-width="1.6"><polygon points="47.9,22.3 51.4,31.0 60.7,31.6 53.5,37.6 55.8,46.7 47.9,41.8 39.9,46.7 42.2,37.6 35.0,31.6 44.4,31.0"/></g>
</g>
<g transform="rotate(-0.8 148.4 34.7)">
<g fill="none"><circle cx="148.38826700295104" cy="34.69598709729648" r="29.135112805488166"/></g>
<g fill="none" stroke-width="1.4"><circle cx="148.38826700295104" cy="34.69598709729648" r="21.559983476061245"/></g>
<g stroke-width="1.6"><circle cx="148.38826700295104" cy="34.69598709729648" r="11.013072640474526" fill="none"/><line x1="137.37519436247652" y1="34.69598709729648" x2="159.40133964342556" y2="34.69598709729648"/><line x1="148.38826700295104" y1="23.682914456821955" x2="148.38826700295104" y2="45.70905973777101"/></g>
</g>
<g transform="rotate(5.4 244.8 35.1)">
<g fill="none"><path d="M 221.95046221696984 6.478802577719414 H 267.72606794882097 V 42.24099455572812 Q 267.72606794882097 60.837334384292646 244.83826508289542 67.9897727798944 Q 221.95046221696984 60.837334384292646 221.95046221696984 42.24099455572812 Z"/></g>
<g fill="none" stroke-width="1.4"><path d="M 227.9012909621105 13.917338509145225 H 261.77523920368037 V 40.38136057287167 Q 261.77523920368037 54.14265204600942 244.83826508289542 59.43545645875471 Q 227.9012909621105 54.14265204600942 227.9012909621105 40.38136057287167 Z"/></g>
<g stroke-width="1.6"><line x1="234.53875379322892" y1="23.50160595925156" x2="234.53875379322892" y2="46.6755063610012"/><line x1="241.49092391375382" y1="23.50160595925156" x2="241.49092391375382" y2="46.6755063610012"/><line x1="248.44309403427872" y1="23.50160595925156" x2="248.44309403427872" y2="46.6755063610012"/><line x1="255.3952641548036" y1="23.50160595925156" x2="255.3952641548036" y2="46.6755063610012"/></g>
</g>
<g transform="rotate(-5.4 351.6 41.0)">
<g fill="none"><path d="M 351.56751098878084 14.684004915267103 L 375.2482731332128 27.839983884395995 L 375.2482731332128 54.15194182265378 L 351.56751098878084 67.30792079178266 L 327.88674884434886 54.15194182265378 L 327.88674884434886 27.839983884395995 Z"/></g>
<g fill="none" stroke-width="1.4"><path d="M 351.56751098878084 21.525113979214126 L 369.09127497566055 31.260538416369506 L 369.09127497566055 50.73138729068027 L 351.56751098878084 60.46681172783565 L 334.0437470019011 50.73138729068027 L 334.0437470019011 31.260538416369506 Z"/></g>
<g stroke-width="1.6"><circle cx="351.56751098878084" cy="40.99596285352489" r="8.288266750551202" fill="none"/></g>
</g>
<g transform="rotate(0.5 446.7 40.7)">
<g fill="none"><path d="M 425.24194537191255 13.916183138271101 H 468.064018391071 V 47.37092768448861 Q 468.064018391071 64.76739484852172 446.65298188149177 71.45834375776522 Q 425.24194537191255 64.76739484852172 425.24194537191255 47.37092768448861 Z"/></g>
<g fill="none" stroke-width="1.4"><path d="M 430.80881486440313 20.874770003884343 H 462.4971488985804 V 45.631280968085306 Q 462.4971488985804 58.5046666694698 446.65298188149177 63.45596886230999 Q 430.80881486440313 58.5046666694698 430.80881486440313 45.631280968085306 Z"/></g>
<g stroke-width="1.6"><polygon points="446.7,28.6 449.8,36.4 458.1,37.0 451.7,42.3 453.7,50.4 446.7,46.0 439.6,50.4 441.6,42.3 435.2,37.0 443.5,36.4"/></g>
</g>
<g transform="rotate(0.9 550.9 40.7)">
<g fill="none"><circle cx="550.8509642757608" cy="40.72308732415375" r="30.24116907400699"/></g>
<g fill="none" stroke-width="1.4"><circle cx="550.8509642757608" cy="40.72308732415375" r="22.378465114765174"/></g>
<g stroke-width="1.6"><circle cx="550.8509642757608" cy="40.72308732415375" r="11.43116190997464" fill="none"/><line x1="539.4198023657862" y1="40.72308732415375" x2="562.2821261857355" y2="40.72308732415375"/><line x1="550.8509642757608" y1="29.29192541417911" x2="550.8509642757608" y2="52.15424923412839"/></g>
</g>
<g transform="rotate(1.4 646.3 35.2)">
<g fill="none"><path d="M 620.3873085814432 4.7372331001691705 H 672.1215960614481 V 35.1691669119368 L 646.2544523214457 71.68748748605796 L 620.3873085814432 35.1691669119368 Z"/></g>
<g fill="none" stroke-width="1.4"><path d="M 627.1127659538438 12.649535891228755 H 665.3961386890476 V 35.1691669119368 L 646.2544523214457 62.19272413678645 L 627.1127659538438 35.1691669119368 Z"/></g>
<g stroke-width="1.6"><line x1="635.2989561492093" y1="22.84423371817091" x2="635.2989561492093" y2="47.494100105702685"/><line x1="642.6939160654688" y1="22.84423371817091" x2="642.6939160654688" y2="47.494100105702685"/><line x1="650.0888759817284" y1="22.84423371817091" x2="650.0888759817284" y2="47.494100105702685"/><line x1="657.4838358979879" y1="22.84423371817091" x2="657.4838358979879" y2="47.494100105702685"/></g>
</g>
<g transform="rotate(5.1 750.0 40.4)">
<g fill="none"><path d="M 749.9569739413619 9.536121440683836 L 777.7170433078124 24.95838219982303 L 777.7170433078124 55.80290371810142 L 749.9569739413619 71.22516447724061 L 722.1969045749113 55.80290371810142 L 722.1969045749113 24.95838219982303 Z"/></g>
<g fill="none" stroke-width="1.4"><path d="M 749.9569739413619 17.555697035436218 L 770.4994252725353 28.968169997199222 L 770.4994252725353 51.79311592072523 L 749.9569739413619 63.205588882488236 L 729.4145226101884 51.79311592072523 L 729.4145226101884 28.968169997199222 Z"/></g>
<g stroke-width="1.6"><circle cx="749.9569739413619" cy="40.38064295896223" r="9.716024278257692" fill="none"/></g>
</g>
<g transform="rotate(0.9 848.3 37.0)">
<g fill="none"><path d="M 826.6917865710477 9.922116892931797 H 869.9861899716218 V 43.74586954963029 Q 869.9861899716218 61.33422093111351 848.3389882713348 68.0989714624532 Q 826.6917865710477 61.33422093111351 826.6917865710477 43.74586954963029 Z"/></g>
<g fill="none" stroke-width="1.4"><path d="M 832.3200590131223 16.957457445525083 H 864.3579175295472 V 41.98703441148197 Q 864.3579175295472 55.00241443377955 848.3389882713348 60.00832982697092 Q 832.3200590131223 55.00241443377955 832.3200590131223 41.98703441148197 Z"/></g>
<g stroke-width="1.6"><polygon points="848.3,24.8 851.5,32.6 859.9,33.2 853.4,38.6 855.5,46.8 848.3,42.3 841.2,46.8 843.2,38.6 836.8,33.2 845.2,32.6"/></g>
</g>
<g transform="rotate(5.8 950.3 44.5)">
<g fill="none"><circle cx="950.3023580457374" cy="44.501649946881145" r="30.54176535388688"/></g>
<g fill="none" stroke-width="1.4"><circle cx="950.3023580457374" cy="44.501649946881145" r="22.60090636187629"/></g>
<g stroke-width="1.6"><circle cx="950.3023580457374" cy="44.501649946881145" r="11.54478730376924" fill="none"/><line x1="938.7575707419682" y1="44.501649946881145" x2="961.8471453495066" y2="44.501649946881145"/><line x1="950.3023580457374" y1="32.956862643111904" x2="950.3023580457374" y2="56.046437250650385"/></g>
</g>
<g transform="rotate(-0.1 1045.4 39.0)">
<g fill="none"><path d="M 1019.3071311487929 8.300228931697312 H 1071.526447529326 V 39.01747386142273 L 1045.4167893390595 75.87816777709324 L 1019.3071311487929 39.01747386142273 Z"/></g>
<g fill="none" stroke-width="1.4"><path d="M 1026.0956422782622 16.28671261342592 H 1064.7379363998568 V 39.01747386142273 L 1045.4167893390595 66.2943873590189 L 1026.0956422782622 39.01747386142273 Z"/></g>
<g stroke-width="1.6"><line x1="1034.3585811643584" y1="26.576989664883936" x2="1034.3585811643584" y2="51.45795805796152"/><line x1="1041.8228716822816" y1="26.576989664883936" x2="1041.8228716822816" y2="51.45795805796152"/><line x1="1049.2871622002049" y1="26.576989664883936" x2="1049.2871622002049" y2="51.45795805796152"/><line x1="1056.7514527181281" y1="26.576989664883936" x2="1056.7514527181281" y2="51.45795805796152"/></g>
</g>
<g transform="rotate(4.5 1144.5 42.0)">
<g fill="none"><path d="M 1144.4704870845692 11.254269270088365 L 1172.158375992061 26.636429774250555 L 1172.158375992061 57.40075078257493 L 1144.4704870845692 72.78291128673712 L 1116.7825981770773 57.40075078257493 L 1116.7825981770773 26.636429774250555 Z"/></g>
<g fill="none" stroke-width="1.4"><path d="M 1144.4704870845692 19.252992732252704 L 1164.9595248761132 30.635791505332726 L 1164.9595248761132 53.401389051492764 L 1144.4704870845692 64.78418782457278 L 1123.9814492930252 53.401389051492764 L 1123.9814492930252 30.635791505332726 Z"/></g>
<g stroke-width="1.6"><circle cx="1144.4704870845692" cy="42.018590278412745" r="9.690761117622179" fill="none"/></g>
</g>
<g transform="rotate(-0.5 47.8 122.3)">
<g fill="none"><path d="M 24.016228121107243 92.65761685394651 H 71.51371218724708 V 129.76502628061826 Q 71.51371218724708 149.06087918248758 47.76497015417716 156.48236106782193 Q 24.016228121107243 149.06087918248758 24.016228121107243 129.76502628061826 Z"/></g>
<g fill="none" stroke-width="1.4"><path d="M 30.19090104970542 100.37595801469423 H 65.33903925864891 V 127.83544099043134 Q 65.33903925864891 142.11437213781463 47.76497015417716 147.60626873296204 Q 30.19090104970542 142.11437213781463 30.19090104970542 127.83544099043134 Z"/></g>
<g stroke-width="1.6"><polygon points="47.8,109.0 51.2,117.6 60.5,118.2 53.4,124.2 55.6,133.2 47.8,128.2 39.9,133.2 42.2,124.2 35.1,118.2 44.3,117.6"/></g>
</g>
<g transform="rotate(-5.3 154.1 125.3)">
<g fill="none"><circle cx="154.0796133661505" cy="125.33617314129525" r="28.923887065890867"/></g>
<g fill="none" stroke-width="1.4"><circle cx="154.0796133661505" cy="125.33617314129525" r="21.40367642875924"/></g>
<g stroke-width="1.6"><circle cx="154.0796133661505" cy="125.33617314129525" r="10.933229310906748" fill="none"/><line x1="143.14638405524377" y1="125.33617314129525" x2="165.01284267705725" y2="125.33617314129525"/><line x1="154.0796133661505" y1="114.4029438303885" x2="154.0796133661505" y2="136.269402452202"/></g>
</g>
<g transform="rotate(2.6 252.4 121.8)">
<g fill="none"><path d="M 225.03748676406158 89.55329038187142 H 279.7983217472446 V 121.76554625433202 L 252.4179042556531 160.42025330128473 L 225.03748676406158 121.76554625433202 Z"/></g>
<g fill="none" stroke-width="1.4"><path d="M 232.15639531187537 97.92847690871119 H 272.6794131994308 V 121.76554625433202 L 252.4179042556531 150.37002946907702 L 232.15639531187537 121.76554625433202 Z"/></g>
<g stroke-width="1.6"><line x1="240.8214921415673" y1="108.71958262598548" x2="240.8214921415673" y2="134.81150988267856"/><line x1="248.6490703185752" y1="108.71958262598548" x2="248.6490703185752" y2="134.81150988267856"/><line x1="256.47664849558316" y1="108.71958262598548" x2="256.47664849558316" y2="134.81150988267856"/><line x1="264.3042266725911" y1="108.71958262598548" x2="264.3042266725911" y2="134.81150988267856"/></g>
</g>
<g transform="rotate(1.3 354.6 118.2)">
<g fill="none"><path d="M 354.6444835068571 86.28411374999176 L 383.3364378932998 102.2240884091266 L 383.3364378932998 134.10403772739625 L 354.6444835068571 150.04401238653105 L 325.95252912041445 134.10403772739625 L 325.95252912041445 102.2240884091266 Z"/></g>
<g fill="none" stroke-width="1.4"><path d="M 354.6444835068571 94.57290057274187 L 375.8765297528247 106.36848182050164 L 375.8765297528247 129.95964431602118 L 354.6444835068571 141.75522556378095 L 333.41243726088953 129.95964431602118 L 333.41243726088953 106.36848182050164 Z"/></g>
<g stroke-width="1.6"><circle cx="354.6444835068571" cy="118.16406306826141" r="10.04218403525494" fill="none"/></g>
</g>
<g transform="rotate(-1.3 449.9 116.6)">
<g fill="none"><path d="M 449.92431593468376 88.87732461153936 L 474.89136775235085 102.74790895468776 L 474.89136775235085 130.48907764098453 L 449.92431593468376 144.35966198413294 L 424.9572641170167 130.48907764098453 L 424.9572641170167 102.74790895468776 Z"/></g>
<g fill="none" stroke-width="1.4"><path d="M 449.92431593468376 96.09002846997653 L 468.3999342797574 106.35426088390633 L 468.3999342797574 126.88272571176597 L 449.92431593468376 137.1469581256958 L 431.4486975896101 126.88272571176597 L 431.4486975896101 106.35426088390633 Z"/></g>
<g stroke-width="1.6"><polygon points="449.9,104.1 453.2,112.2 461.8,112.8 455.1,118.3 457.3,126.7 449.9,122.1 442.6,126.7 444.7,118.3 438.1,112.8 446.7,112.2"/></g>
</g>
<g transform="rotate(4.6 554.5 115.0)">
<g fill="none"><circle cx="554.4570636895156" cy="114.96697561440166" r="28.76605137241496"/></g>
<g fill="none" stroke-width="1.4"><circle cx="554.4570636895156" cy="114.96697561440166" r="21.28687801558707"/></g>
<g stroke-width="1.6"><circle cx="554.4570636895156" cy="114.96697561440166" r="10.873567418772856" fill="none"/><line x1="543.5834962707428" y1="114.96697561440166" x2="565.3306311082885" y2="114.96697561440166"/><line x1="554.4570636895156" y1="104.09340819562881" x2="554.4570636895156" y2="125.84054303317451"/></g>
</g>
<g transform="rotate(-1.7 653.8 124.4)">
<g fill="none"><path d="M 630.2998935689828 96.68373777162213 H 677.362822539075 V 124.36781363638218 L 653.8313580540289 157.58870467409423 L 630.2998935689828 124.36781363638218 Z"/></g>
<g fill="none" stroke-width="1.4"><path d="M 636.4180743350948 103.88159749645975 H 671.244641772963 V 124.36781363638218 L 653.8313580540289 148.9512730042891 L 636.4180743350948 124.36781363638218 Z"/></g>
<g stroke-width="1.6"><line x1="643.8650907427153" y1="113.15576291115435" x2="643.8650907427153" y2="135.57986436161"/><line x1="650.592321177852" y1="113.15576291115435" x2="650.592321177852" y2="135.57986436161"/><line x1="657.3195516129887" y1="113.15576291115435" x2="657.3195516129887" y2="135.57986436161"/><line x1="664.0467820481254" y1="113.15576291115435" x2="664.0467820481254" y2="135.57986436161"/></g>
</g>
<g transform="rotate(-3.2 754.6 125.5)">
<g fill="none"><path d="M 754.6103139263786 98.61653958847543 L 778.7989252995618 112.05465701802166 L 778.7989252995618 138.93089187711414 L 754.6103139263786 152.36900930666036 L 730.4217025531954 138.93089187711414 L 730.4217025531954 112.05465701802166 Z"/></g>
<g fill="none" stroke-width="1.4"><path d="M 754.6103139263786 105.60436065183947 L 772.5098863425342 115.54856754970368 L 772.5098863425342 135.43698134543212 L 754.6103139263786 145.38118824329632 L 736.710741510223 135.43698134543212 L 736.710741510223 115.54856754970368 Z"/></g>
<g stroke-width="1.6"><circle cx="754.6103139263786" cy="125.4927744475679" r="8.466013980614127" fill="none"/></g>
</g>
<g transform="rotate(-6.0 846.8 119.8)">
<g fill="none"><path d="M 823.0778837884523 90.1668662444487 H 870.5221822198885 V 127.23272439400816 Q 870.5221822198885 146.5069706317791 846.8000330041704 153.92014226169098 Q 823.0778837884523 146.5069706317791 823.0778837884523 127.23272439400816 Z"/></g>
<g fill="none" stroke-width="1.4"><path d="M 829.245642584539 97.87656473955707 H 864.3544234238017 V 125.30529977023107 Q 864.3544234238017 139.56824198618156 846.8000330041704 145.05398899231636 Q 829.245642584539 139.56824198618156 829.245642584539 125.30529977023107 Z"/></g>
<g stroke-width="1.6"><polygon points="846.8,106.5 850.3,115.1 859.5,115.7 852.4,121.6 854.6,130.6 846.8,125.7 839.0,130.6 841.2,121.6 834.1,115.7 843.3,115.1"/></g>
</g>
<g transform="rotate(-0.5 949.0 118.4)">
<g fill="none"><path d="M 925.4206876187809 88.922704881333 H 972.6340284082269 V 125.80812737308763 Q 972.6340284082269 144.98854706880002 949.0273580135039 152.36563156715096 Q 925.4206876187809 144.98854706880002 925.4206876187809 125.80812737308763 Z"/></g>
<g fill="none" stroke-width="1.4"><path d="M 931.5584219214089 96.59487275961797 H 966.4962941055988 V 123.8900854035164 Q 966.4962941055988 138.08359597834357 949.0273580135039 143.54263850712326 Q 931.5584219214089 138.08359597834357 931.5584219214089 123.8900854035164 Z"/></g>
<g stroke-width="1.6"><circle cx="949.0273580135039" cy="118.4310428747367" r="11.154151761506597" fill="none"/><line x1="937.8732062519973" y1="118.4310428747367" x2="960.1815097750105" y2="118.4310428747367"/><line x1="949.0273580135039" y1="107.2768911132301" x2="949.0273580135039" y2="129.5851946362433"/></g>
</g>
<g transform="rotate(-1.2 1054.5 125.4)">
<g fill="none"><path d="M 1028.7544487496152 95.19051080965127 H 1080.149059278171 V 125.42263464997826 L 1054.4517540138932 161.70118325837066 L 1028.7544487496152 125.42263464997826 Z"/></g>
<g fill="none" stroke-width="1.4"><path d="M 1035.4357481183274 103.05086300813629 H 1073.467759909459 V 125.42263464997826 L 1054.4517540138932 152.26876062018863 L 1035.4357481183274 125.42263464997826 Z"/></g>
<g stroke-width="1.6"><line x1="1043.5681894313755" y1="113.17862449464583" x2="1043.5681894313755" y2="137.66664480531068"/><line x1="1050.914595524575" y1="113.17862449464583" x2="1050.914595524575" y2="137.66664480531068"/><line x1="1058.2610016177744" y1="113.17862449464583" x2="1058.2610016177744" y2="137.66664480531068"/><line x1="1065.6074077109738" y1="113.17862449464583" x2="1065.6074077109738" y2="137.66664480531068"/></g>
</g>
<g transform="rotate(5.8 1148.7 119.8)">
<g fill="none"><path d="M 1148.7294401917043 91.32106931103075 L 1174.3409242479606 105.54967156450654 L 1174.3409242479606 134.00687607145812 L 1148.7294401917043 148.23547832493392 L 1123.117956135448 134.00687607145812 L 1123.117956135448 105.54967156450654 Z"/></g>
<g fill="none" stroke-width="1.4"><path d="M 1148.7294401917043 98.71994248283816 L 1167.6819383933341 109.24910815041025 L 1167.6819383933341 130.30743948555443 L 1148.7294401917043 140.83660515312653 L 1129.7769419900744 130.30743948555443 L 1129.7769419900744 109.24910815041025 Z"/></g>
<g stroke-width="1.6"><circle cx="1148.7294401917043" cy="119.77827381798234" r="8.96401941968975" fill="none"/></g>
</g>
<g transform="rotate(0.8 49.3 195.3)">
<g fill="none"><path d="M 25.506556081851894 165.5929317374492 H 73.06848875794212 V 202.75069164064467 Q 73.06848875794212 222.07272679030635 49.28752241989701 229.50427877094543 Q 25.506556081851894 222.07272679030635 25.506556081851894 202.75069164064467 Z"/></g>
<g fill="none" stroke-width="1.4"><path d="M 31.689607329743623 173.32174579731387 H 66.8854375100504 V 200.81848812567853 Q 66.8854375100504 215.11679413642815 49.28752241989701 220.6161426021011 Q 31.689607329743623 215.11679413642815 31.689607329743623 200.81848812567853 Z"/></g>
<g stroke-width="1.6"><polygon points="49.3,181.9 52.7,190.6 62.0,191.2 54.9,197.1 57.2,206.1 49.3,201.2 41.4,206.1 43.7,197.1 36.6,191.2 45.8,190.6"/></g>
</g>
<g transform="rotate(-3.5 150.4 205.4)">
<g fill="none"><circle cx="150.43942425562122" cy="205.3873851028332" r="29.808639298212327"/></g>
<g fill="none" stroke-width="1.4"><circle cx="150.43942425562122" cy="205.3873851028332" r="22.05839308067712"/></g>
<g stroke-width="1.6"><circle cx="150.43942425562122" cy="205.3873851028332" r="11.26766565472426" fill="none"/><line x1="139.17175860089696" y1="205.3873851028332" x2="161.70708991034547" y2="205.3873851028332"/><line x1="150.43942425562122" y1="194.11971944810895" x2="150.43942425562122" y2="216.65505075755746"/></g>
</g>
<g transform="rotate(-0.3 248.5 201.6)">
<g fill="none"><path d="M 221.3369837520458 169.63906954284036 H 275.69252093130876 V 201.6129149424068 L 248.51475234167728 239.98152942188653 L 221.3369837520458 201.6129149424068 Z"/></g>
<g fill="none" stroke-width="1.4"><path d="M 228.40320358534998 177.95226934672763 H 268.62630109800455 V 201.6129149424068 L 248.51475234167728 230.0056896572218 L 228.40320358534998 201.6129149424068 Z"/></g>
<g stroke-width="1.6"><line x1="237.00416799783335" y1="188.66350755558238" x2="237.00416799783335" y2="214.56232232923122"/><line x1="244.773812429928" y1="188.66350755558238" x2="244.773812429928" y2="214.56232232923122"/><line x1="252.54345686202265" y1="188.66350755558238" x2="252.54345686202265" y2="214.56232232923122"/><line x1="260.3131012941173" y1="188.66350755558238" x2="260.3131012941173" y2="214.56232232923122"/></g>
</g>
<g transform="rotate(-2.3 345.4 199.9)">
<g fill="none"><path d="M 345.3842421933058 167.7413301794881 L 374.288180069349 183.7990734439565 L 374.288180069349 215.91455997289336 L 345.3842421933058 231.97230323736176 L 316.4803043172626 215.91455997289336 L 316.4803043172626 183.7990734439565 Z"/></g>
<g fill="none" stroke-width="1.4"><path d="M 345.3842421933058 176.09135667701167 L 366.7731562215777 187.9740866927183 L 366.7731562215777 211.73954672413157 L 345.3842421933058 223.62227673983818 L 323.99532816503387 211.73954672413157 L 323.99532816503387 187.9740866927183 Z"/></g>
<g stroke-width="1.6"><circle cx="345.3842421933058" cy="199.85681670842493" r="10.116378256615105" fill="none"/></g>
</g>
<g transform="rotate(2.3 445.7 203.0)">
<g fill="none"><path d="M 421.2407175962407 172.38522168733277 H 470.218102169003 V 210.64880338480327 Q 470.218102169003 230.54586586748792 445.72940988262184 238.19858220698202 Q 421.2407175962407 230.54586586748792 421.2407175962407 210.64880338480327 Z"/></g>
<g fill="none" stroke-width="1.4"><path d="M 427.6077775906998 180.34404668040662 H 463.85104217454386 V 208.6590971365348 Q 463.85104217454386 223.38292337372144 445.72940988262184 229.0459334649471 Q 427.6077775906998 223.38292337372144 427.6077775906998 208.6590971365348 Z"/></g>
<g stroke-width="1.6"><polygon points="445.7,189.2 449.3,198.1 458.8,198.7 451.5,204.9 453.8,214.1 445.7,209.1 437.6,214.1 440.0,204.9 432.6,198.7 442.2,198.1"/></g>
</g>
<g transform="rotate(2.3 550.2 196.5)">
<g fill="none"><circle cx="550.1960142275478" cy="196.4625800804185" r="31.952004720829716"/></g>
<g fill="none" stroke-width="1.4"><circle cx="550.1960142275478" cy="196.4625800804185" r="23.64448349341399"/></g>
<g stroke-width="1.6"><circle cx="550.1960142275478" cy="196.4625800804185" r="12.077857784473633" fill="none"/><line x1="538.1181564430742" y1="196.4625800804185" x2="562.2738720120215" y2="196.4625800804185"/><line x1="550.1960142275478" y1="184.38472229594487" x2="550.1960142275478" y2="208.5404378648921"/></g>
</g>
<g transform="rotate(-4.9 655.0 203.1)">
<g fill="none"><path d="M 631.3323575571678 175.28901923639722 H 678.6071412298256 V 203.09771551443126 L 654.9697493934967 236.4681510480721 L 631.3323575571678 203.09771551443126 Z"/></g>
<g fill="none" stroke-width="1.4"><path d="M 637.4780794346133 182.5192802686861 H 672.4614193523802 V 203.09771551443126 L 654.9697493934967 227.79183780932547 L 637.4780794346133 203.09771551443126 Z"/></g>
<g stroke-width="1.6"><line x1="644.9586187334045" y1="191.83519352182748" x2="644.9586187334045" y2="214.36023750703504"/><line x1="651.7161319289668" y1="191.83519352182748" x2="651.7161319289668" y2="214.36023750703504"/><line x1="658.4736451245291" y1="191.83519352182748" x2="658.4736451245291" y2="214.36023750703504"/><line x1="665.2311583200913" y1="191.83519352182748" x2="665.2311583200913" y2="214.36023750703504"/></g>
</g>
<g transform="rotate(-3.3 754.1 200.2)">
<g fill="none"><path d="M 754.1453711325927 168.5460361529441 L 782.6526246519768 184.38339921926863 L 782.6526246519768 216.05812535191765 L 754.1453711325927 231.89548841824217 L 725.6381176132086 216.05812535191765 L 725.6381176132086 184.38339921926863 Z"/></g>
<g fill="none" stroke-width="1.4"><path d="M 754.1453711325927 176.78146494743285 L 775.2407387369369 188.501113616513 L 775.2407387369369 211.94041095467327 L 754.1453711325927 223.66005962375343 L 733.0500035282485 211.94041095467327 L 733.0500035282485 188.501113616513 Z"/></g>
<g stroke-width="1.6"><circle cx="754.1453711325927" cy="200.22076228559314" r="9.977538731784442" fill="none"/></g>
</g>
<g transform="rotate(3.5 850.5 200.0)">
<g fill="none"><path d="M 826.5368086422004 170.07986823975136 H 874.4608023045243 V 207.52048828844187 Q 874.4608023045243 226.98961071376092 850.4988054733624 234.47773472349903 Q 826.5368086422004 226.98961071376092 826.5368086422004 207.52048828844187 Z"/></g>
<g fill="none" stroke-width="1.4"><path d="M 832.7669278183025 177.867517209879 H 868.2306831284222 V 205.57357604590996 Q 868.2306831284222 219.98072664064608 850.4988054733624 225.52193840785225 Q 832.7669278183025 219.98072664064608 832.7669278183025 205.57357604590996 Z"/></g>
<g stroke-width="1.6"><polygon points="850.5,186.6 854.0,195.2 863.3,195.9 856.1,201.9 858.4,210.9 850.5,206.0 842.6,210.9 844.9,201.9 837.7,195.9 847.0,195.2"/></g>
</g>
<g transform="rotate(3.6 953.1 196.3)">
<g fill="none"><circle cx="953.0998690890636" cy="196.34175236279475" r="27.436760307319144"/></g>
<g fill="none" stroke-width="1.4"><circle cx="953.0998690890636" cy="196.34175236279475" r="20.303202627416166"/></g>
<g stroke-width="1.6"><circle cx="953.0998690890636" cy="196.34175236279475" r="10.371095396166636" fill="none"/><line x1="942.728773692897" y1="196.34175236279475" x2="963.4709644852303" y2="196.34175236279475"/><line x1="953.0998690890636" y1="185.97065696662813" x2="953.0998690890636" y2="206.71284775896137"/></g>
</g>
<g transform="rotate(-0.3 1046.4 199.9)">
<g fill="none"><path d="M 1020.4301206988662 169.36174081864306 H 1072.3679109026175 V 199.91338211496733 L 1046.3990158007418 236.57535167055644 L 1020.4301206988662 199.91338211496733 Z"/></g>
<g fill="none" stroke-width="1.4"><path d="M 1027.182033425354 177.30516755568738 H 1065.6159981761298 V 199.91338211496733 L 1046.3990158007418 227.04323958610328 L 1027.182033425354 199.91338211496733 Z"/></g>
<g stroke-width="1.6"><line x1="1035.400424934065" y1="187.53996738995602" x2="1035.400424934065" y2="212.28679683997865"/><line x1="1042.8244737690718" y1="187.53996738995602" x2="1042.8244737690718" y2="212.28679683997865"/><line x1="1050.2485226040787" y1="187.53996738995602" x2="1050.2485226040787" y2="212.28679683997865"/><line x1="1057.6725714390855" y1="187.53996738995602" x2="1057.6725714390855" y2="212.28679683997865"/></g>
</g>
<g transform="rotate(5.5 1146.3 201.3)">
<g fill="none"><path d="M 1122.4375800064868 173.1603044441085 H 1170.2098986978208 V 201.2616683801873 L 1146.3237393521538 234.98330510348185 L 1122.4375800064868 201.2616683801873 Z"/></g>
<g fill="none" stroke-width="1.4"><path d="M 1128.6479814363602 180.466659067489 H 1163.9994972679474 V 201.2616683801873 L 1146.3237393521538 226.21567955542528 L 1128.6479814363602 201.2616683801873 Z"/></g>
<g stroke-width="1.6"><circle cx="1146.3237393521538" cy="201.2616683801873" r="8.85192963986482" fill="none"/></g>
</g>
<g transform="rotate(-3.5 48.4 276.6)">
<g fill="none"><path d="M 26.48979449780968 249.28825271778894 H 70.2614667508751 V 283.4848716654963 Q 70.2614667508751 301.26711351830414 48.37563062434239 308.1064373078456 Q 26.48979449780968 301.26711351830414 26.48979449780968 283.4848716654963 Z"/></g>
<g fill="none" stroke-width="1.4"><path d="M 32.18011189070818 256.4011494589121 H 64.5711493579766 V 281.7066474802155 Q 64.5711493579766 294.8655064512933 48.37563062434239 299.926606055554 Q 32.18011189070818 294.8655064512933 32.18011189070818 281.7066474802155 Z"/></g>
<g stroke-width="1.6"><polygon points="48.4,264.3 51.6,272.3 60.1,272.8 53.5,278.3 55.6,286.6 48.4,282.1 41.1,286.6 43.2,278.3 36.7,272.8 45.2,272.3"/></g>
</g>
<g transform="rotate(1.8 151.5 284.8)">
<g fill="none"><circle cx="151.4887967692538" cy="284.80370005460935" r="31.244999500841583"/></g>
<g fill="none" stroke-width="1.4"><circle cx="151.4887967692538" cy="284.80370005460935" r="23.121299630622772"/></g>
<g stroke-width="1.6"><circle cx="151.4887967692538" cy="284.80370005460935" r="11.810609811318118" fill="none"/><line x1="139.67818695793568" y1="284.80370005460935" x2="163.29940658057194" y2="284.80370005460935"/><line x1="151.4887967692538" y1="272.99309024329125" x2="151.4887967692538" y2="296.61430986592745"/></g>
</g>
<g transform="rotate(-0.3 253.6 275.0)">
<g fill="none"><circle cx="253.59572493819593" cy="275.01734183740456" r="30.10547067969821"/></g>
<g fill="none" stroke-width="1.4"><circle cx="253.59572493819593" cy="275.01734183740456" r="22.278048302976675"/></g>
<g stroke-width="1.6"><line x1="242.75775549350456" y1="262.82462621212676" x2="242.75775549350456" y2="287.21005746268236"/><line x1="250.07338486867124" y1="262.82462621212676" x2="250.07338486867124" y2="287.21005746268236"/><line x1="257.3890142438379" y1="262.82462621212676" x2="257.3890142438379" y2="287.21005746268236"/><line x1="264.70464361900457" y1="262.82462621212676" x2="264.70464361900457" y2="287.21005746268236"/></g>
</g>
<g transform="rotate(-0.4 346.1 283.5)">
<g fill="none"><path d="M 346.1422606200509 255.44279619390113 L 371.36640670055885 269.4562106830722 L 371.36640670055885 297.4830396614144 L 346.1422606200509 311.49645415058546 L 320.9181145395429 297.4830396614144 L 320.9181145395429 269.4562106830722 Z"/></g>
<g fill="none" stroke-width="1.4"><path d="M 346.1422606200509 262.72977172827007 L 364.8081287196268 273.0996984502567 L 364.8081287196268 293.8395518942299 L 346.1422606200509 304.20947861621653 L 327.476392520475 293.8395518942299 L 327.476392520475 273.0996984502567 Z"/></g>
<g stroke-width="1.6"><circle cx="346.1422606200509" cy="283.4696251722433" r="8.828451128177782" fill="none"/></g>
</g>
<g transform="rotate(-4.2 452.9 275.0)">
<g fill="none"><path d="M 431.37902298114784 248.09251905778382 H 474.46144207815587 V 281.75065897732134 Q 474.46144207815587 299.25289173548083 452.92023252965186 305.98451971938835 Q 431.37902298114784 299.25289173548083 431.37902298114784 281.75065897732134 Z"/></g>
<g fill="none" stroke-width="1.4"><path d="M 436.9797374637589 255.0934121610476 H 468.8607275955448 V 280.00043570150535 Q 468.8607275955448 292.9520879425434 452.92023252965186 297.93349265063495 Q 436.9797374637589 292.9520879425434 436.9797374637589 280.00043570150535 Z"/></g>
<g stroke-width="1.6"><polygon points="452.9,262.9 456.1,270.7 464.4,271.3 458.0,276.7 460.0,284.8 452.9,280.4 445.8,284.8 447.8,276.7 441.4,271.3 449.8,270.7"/></g>
</g>
<g transform="rotate(1.9 554.9 283.7)">
<g fill="none"><path d="M 554.8582251487989 256.8318633641852 L 579.0197695269799 270.2549435742858 L 579.0197695269799 297.10110399448695 L 554.8582251487989 310.5241842045875 L 530.6966807706178 297.10110399448695 L 530.6966807706178 270.2549435742858 Z"/></g>
<g fill="none" stroke-width="1.4"><path d="M 554.8582251487989 263.8118650734375 L 572.7377679886529 273.74494442891194 L 572.7377679886529 293.6111031398608 L 554.8582251487989 303.54418249533524 L 536.9786823089448 293.6111031398608 L 536.9786823089448 273.74494442891194 Z"/></g>
<g stroke-width="1.6"><circle cx="554.8582251487989" cy="283.67802378438637" r="10.147848638836049" fill="none"/><line x1="544.7103765099628" y1="283.67802378438637" x2="565.0060737876349" y2="283.67802378438637"/><line x1="554.8582251487989" y1="273.53017514555034" x2="554.8582251487989" y2="293.8258724232224"/></g>
</g>
<g transform="rotate(5.7 648.2 280.6)">
<g fill="none"><path d="M 625.467463512508 253.8340068415095 H 670.9423167792722 V 280.58392052784137 L 648.2048901458901 312.6838169514396 L 625.467463512508 280.58392052784137 Z"/></g>
<g fill="none" stroke-width="1.4"><path d="M 631.3791944371874 260.7889843999558 H 665.0305858545928 V 280.58392052784137 L 648.2048901458901 304.3378438813041 L 631.3791944371874 280.58392052784137 Z"/></g>
<g stroke-width="1.6"><line x1="638.5749212188106" y1="269.750205484877" x2="638.5749212188106" y2="291.41763557080577"/><line x1="645.0751502445892" y1="269.750205484877" x2="645.0751502445892" y2="291.41763557080577"/><line x1="651.5753792703679" y1="269.750205484877" x2="651.5753792703679" y2="291.41763557080577"/><line x1="658.0756082961465" y1="269.750205484877" x2="658.0756082961465" y2="291.41763557080577"/></g>
</g>
<g transform="rotate(4.5 751.8 280.3)">
<g fill="none"><path d="M 751.7960960360859 248.48352580034484 L 780.4479981244455 264.4012491827668 L 780.4479981244455 296.2366959476106 L 751.7960960360859 312.15441933003257 L 723.1441939477264 296.2366959476106 L 723.1441939477264 264.4012491827668 Z"/></g>
<g fill="none" stroke-width="1.4"><path d="M 751.7960960360859 256.7607419592042 L 772.9985035814719 268.53985726219645 L 772.9985035814719 292.0980878681809 L 751.7960960360859 303.87720317117316 L 730.5936884907 292.0980878681809 L 730.5936884907 268.53985726219645 Z"/></g>
<g stroke-width="1.6"><circle cx="751.7960960360859" cy="280.3189725651887" r="10.028165730925814" fill="none"/></g>
</g>
<g transform="rotate(-3.1 853.9 276.5)">
<g fill="none"><path d="M 831.9013627299335 249.01688268312625 H 875.9263633136318 V 283.41141438914065 Q 875.9263633136318 301.2965708762681 853.9138630217826 308.175477217471 Q 831.9013627299335 301.2965708762681 831.9013627299335 283.41141438914065 Z"/></g>
<g fill="none" stroke-width="1.4"><path d="M 837.6246128058142 256.17094527797724 H 870.203113237751 V 281.6228987404279 Q 870.203113237751 294.85791454090224 853.9138630217826 299.9483052333924 Q 837.6246128058142 294.85791454090224 837.6246128058142 281.6228987404279 Z"/></g>
<g stroke-width="1.6"><polygon points="853.9,264.2 857.1,272.1 865.7,272.7 859.1,278.2 861.2,286.5 853.9,282.0 846.6,286.5 848.7,278.2 842.1,272.7 850.7,272.1"/></g>
</g>
<g transform="rotate(4.9 951.0 277.1)">
<g fill="none"><circle cx="951.0372460179915" cy="277.11237754324253" r="28.57486353425279"/></g>
<g fill="none" stroke-width="1.4"><circle cx="951.0372460179915" cy="277.11237754324253" r="21.145399015347063"/></g>
<g stroke-width="1.6"><circle cx="951.0372460179915" cy="277.11237754324253" r="10.801298415947553" fill="none"/><line x1="940.2359476020439" y1="277.11237754324253" x2="961.8385444339391" y2="277.11237754324253"/><line x1="951.0372460179915" y1="266.311079127295" x2="951.0372460179915" y2="287.9136759591901"/></g>
</g>
<g transform="rotate(3.9 1048.2 279.5)">
<g fill="none"><path d="M 1048.2454082874392 249.88183401800364 L 1074.8998963251306 264.68988292783223 L 1074.8998963251306 294.3059807474894 L 1048.2454082874392 309.114029657318 L 1021.5909202497478 294.3059807474894 L 1021.5909202497478 264.68988292783223 Z"/></g>
<g fill="none" stroke-width="1.4"><path d="M 1048.2454082874392 257.5820194511145 L 1067.969729435331 268.53997564438765 L 1067.969729435331 290.455888030934 L 1048.2454082874392 301.41384422420714 L 1028.5210871395475 290.455888030934 L 1028.5210871395475 268.53997564438765 Z"/></g>
<g stroke-width="1.6"><line x1="1037.5836130723626" y1="267.50341222069966" x2="1037.5836130723626" y2="291.49245145462197"/><line x1="1044.7803248425394" y1="267.50341222069966" x2="1044.7803248425394" y2="291.49245145462197"/><line x1="1051.977036612716" y1="267.50341222069966" x2="1051.977036612716" y2="291.49245145462197"/><line x1="1059.1737483828927" y1="267.50341222069966" x2="1059.1737483828927" y2="291.49245145462197"/></g>
</g>
<g transform="rotate(4.5 1154.5 275.6)">
<g fill="none"><path d="M 1154.538025364427 248.6871237775755 L 1178.731857162048 262.1281414429205 L 1178.731857162048 289.01017677361045 L 1154.538025364427 302.45119443895544 L 1130.344193566806 289.01017677361045 L 1130.344193566806 262.1281414429205 Z"/></g>
<g fill="none" stroke-width="1.4"><path d="M 1154.538025364427 255.67645296355488 L 1172.4414608946665 265.6228060359102 L 1172.4414608946665 285.51551218062076 L 1154.538025364427 295.46186525297605 L 1136.6345898341876 285.51551218062076 L 1136.6345898341876 265.6228060359102 Z"/></g>
<g stroke-width="1.6"><circle cx="1154.538025364427" cy="275.56915910826547" r="8.467841129167342" fill="none"/></g>
</g>
</g></svg>